<?xml version="1.0" encoding="utf-8"?>
<!-- Generator: Adobe Illustrator 16.0.0, SVG Export Plug-In . SVG Version: 6.00 Build 0)  -->
<!DOCTYPE svg PUBLIC "-//W3C//DTD SVG 1.1//EN" "http://www.w3.org/Graphics/SVG/1.1/DTD/svg11.dtd">
<svg version="1.1" id="Capa_1" xmlns="http://www.w3.org/2000/svg" xmlns:xlink="http://www.w3.org/1999/xlink" x="0px" y="0px"
	 width="595.28px" height="841.89px" viewBox="0 0 595.28 841.89" enable-background="new 0 0 595.28 841.89" xml:space="preserve">
<path fill-rule="evenodd" clip-rule="evenodd" d="M137.023,541.534c-7.303,0-13.746,0-21.088,0c0-8.763,0-17.345,0-25.927
	c0-8.5,0-16.998,0-25.497c0-8.665,0-17.331,0-25.996s0-17.331,0-25.997c0-8.498,0.023-16.997-0.009-25.496
	c-0.032-8.416-0.122-16.831-0.187-25.247c-0.891,0.018-1.783,0.036-2.674,0.053c-0.783,17.665,0.162,35.394-0.35,53.684
	c-3.989,0-7.628,0.236-11.202-0.145c-1.06-0.113-2.77-1.964-2.771-3.02c-0.028-18.657-0.271-37.333,0.48-55.965
	c0.405-10.042,5.187-13.477,15.414-13.49c16.998-0.021,33.995-0.013,50.993-0.003c12.36,0.007,16.994,4.402,17.222,17.198
	c0.265,14.827,0.086,29.661,0.099,44.493c0.003,3.32,0,6.642,0,10.888c-4.172,0-8.11,0.303-11.937-0.217
	c-0.935-0.127-2.132-2.944-2.144-4.532c-0.109-14.664,0.045-29.328,0.033-43.992c-0.001-1.679-0.546-3.356-0.839-5.035
	c-0.601,0.074-1.201,0.148-1.802,0.222c0,51.12,0,102.24,0,154.178c-7.02,0-13.289,0.179-19.522-0.209
	c-0.862-0.053-2.2-2.905-2.216-4.473c-0.165-16.33-0.103-32.662-0.105-48.992c-0.001-5.666-0.052-11.332,0.014-16.997
	c0.029-2.487-0.405-4.054-3.51-4.089c-3.173-0.037-3.948,1.253-3.938,4.162c0.078,21.496,0.039,42.993,0.038,64.49
	C137.023,537.389,137.023,539.193,137.023,541.534z"/>
<path fill-rule="evenodd" clip-rule="evenodd" d="M396.354,480.711c0-30.484,0-60.714,0-91.276c33.42,0,66.629,0,100.191,0
	c0,30.284,0,60.493,0,91.276C463.328,480.711,430.127,480.711,396.354,480.711z"/>
<path fill-rule="evenodd" clip-rule="evenodd" d="M480.468,386.608c-23.689,0-47.254,0-71.261,0c-0.166-1.494-0.46-2.917-0.463-4.34
	c-0.032-16.485,0.063-32.971-0.085-49.455c-0.032-3.585,0.871-5.31,4.747-4.894c2.469,0.265,4.992-0.018,7.487,0.061
	c4.798,0.152,9.677,0.69,12.84-4.207c0.323-0.5,1.07-0.877,1.687-1.013c11.424-2.519,9.269-12.075,10.589-19.97
	c0.385-2.3,1.63-4.81,3.283-6.379c0.72-0.683,4.507,0.25,5.053,1.358c0.941,1.91,1.042,4.711,0.42,6.821
	c-1.557,5.285-3.716,10.393-5.307,14.69c4.021,3.08,6.901,5.472,9.991,7.555c1.122,0.756,2.737,1.047,4.138,1.078
	c5.482,0.119,10.97,0.048,16.881,0.048C480.468,347.626,480.468,366.972,480.468,386.608z"/>
<path fill-rule="evenodd" clip-rule="evenodd" d="M116.749,341.953c0.056-13.486,10.638-23.993,24.119-23.947
	c13.353,0.045,24.067,10.809,24.03,24.143c-0.037,13.273-10.854,23.983-24.223,23.98
	C127.352,366.127,116.694,355.358,116.749,341.953z"/>
<path fill-rule="evenodd" clip-rule="evenodd" d="M457.361,484.383c7.486,0,14.093,0,21.235,0c0,15.525,0,30.784,0,46.203
	c1.235,0.303,1.991,0.537,2.765,0.667c2.387,0.402,6.525,0.218,6.848,1.245c1.003,3.193,0.765,6.855,0.515,10.301
	c-0.056,0.77-2.113,1.975-3.265,1.993c-9.996,0.158-19.998,0.212-29.988-0.067c-1.194-0.033-2.649-2.068-3.382-3.486
	c-0.545-1.055-0.039-2.617-0.135-3.943c-0.266-3.65-0.152-6.973,5.407-6.151C457.361,515.25,457.361,499.986,457.361,484.383z"/>
<path fill-rule="evenodd" clip-rule="evenodd" d="M438.967,484.382c0,15.776,0,31.041,0,46.212c6.114,1.307,8.971,6.965,6.357,12.42
	c-0.465,0.97-2.325,1.776-3.554,1.795c-9.815,0.145-19.636,0.006-29.451,0.126c-3.117,0.038-4.196-1.341-4.017-4.215
	c0.062-0.994,0.127-2.015-0.02-2.991c-0.748-4.975,1.178-7.227,6.314-6.482c0.769,0.111,1.603-0.229,3.132-0.477
	c0-15.395,0-30.762,0-46.388C425.053,484.382,431.629,484.382,438.967,484.382z"/>
<path fill-rule="evenodd" clip-rule="evenodd" d="M500.129,413.736c8.455,7.924,16.857,14.092,22.846,22.073
	c3.39,4.517,6.969,6.25,11.538,7.709c3.416,1.09,4.267,3.445,3.344,6.635c-0.952,3.293-3.2,3.897-6.229,2.855
	c-3.299-1.136-6.614-2.233-9.955-3.236c-1.245-0.373-2.584-0.433-3.88-0.635c-0.252,0.494-0.503,0.99-0.754,1.484
	c2.529,2.168,5.056,4.34,7.59,6.503c1.138,0.971,3.062,1.78,3.271,2.916c0.402,2.165,0.436,4.856-0.584,6.638
	c-0.529,0.926-3.966,1.064-5.506,0.332c-2.486-1.182-4.492-3.376-6.702-5.143c-2.025-1.619-3.963-2.253-6.873-2.42
	c-2.816-0.16-7.584-4.018-7.74-6.488C499.701,440.404,500.129,427.773,500.129,413.736z"/>
<path fill-rule="evenodd" clip-rule="evenodd" d="M378.646,449.134c-1.305,0.212-2.651,0.288-3.907,0.663
	c-3.505,1.049-6.912,2.655-10.481,3.152c-1.685,0.234-4.851-1.234-5.204-2.521c-0.502-1.826,0.743-5.941,1.637-6.059
	c7.922-1.035,11.41-7.355,16.18-12.316c4.785-4.977,10.079-9.463,16.006-14.959c0,13.749,0.141,26.329-0.204,38.895
	c-0.037,1.338-2.747,2.932-4.515,3.803c-1.975,0.971-4.463,0.917-6.407,1.928c-2.025,1.052-3.684,2.823-5.475,4.313
	c-2.497,2.076-5.058,3.626-7.696,0.32c-2.625-3.286-1.17-5.762,1.713-8.008c3.097-2.413,6.066-4.989,9.091-7.494
	C379.137,450.277,378.891,449.705,378.646,449.134z"/>
<path fill-rule="evenodd" clip-rule="evenodd" d="M279.822,411.349c-5.185,9.356-10.077,18.188-14.972,27.018
	c-0.967,1.744-1.938,3.486-2.913,5.227c-5.18,9.242-5.181,9.242-16.851,7.831c-1.094-6.501-2.219-13.171-3.34-19.841
	c-1.122-6.676-2.242-13.354-3.486-20.767c3.673,0,6.836-0.343,9.85,0.179c1.109,0.192,2.494,2.342,2.677,3.74
	c1.035,7.882,1.742,15.807,3.415,24.014c1.564-3.485,3.123-6.973,4.694-10.455c1.298-2.877,2.623-5.742,3.916-8.622
	C267.35,409.566,267.347,409.564,279.822,411.349z"/>
<path fill-rule="evenodd" clip-rule="evenodd" d="M311.322,411.458c-0.523,1.987-0.786,3.268-1.205,4.497
	c-0.418,1.23-0.992,2.407-1.402,3.381c-3.404-0.303-6.527-0.938-9.58-0.695c-1.441,0.115-3.35,1.672-3.896,3.036
	c-0.34,0.847,1.217,2.886,2.383,3.808c1.933,1.525,4.359,2.414,6.363,3.867c7.09,5.139,6.938,14.619-0.223,19.689
	c-6.657,4.713-18.442,4.789-25.646,0.01c0.763-2.254,1.548-4.575,2.479-7.326c2.993,0.732,5.841,2.015,8.653,1.939
	c2.484-0.066,4.929-1.646,7.391-2.559c-1.402-1.979-2.591-4.171-4.275-5.871c-1.361-1.373-3.455-1.988-4.991-3.227
	c-6.257-5.049-5.851-13.978,0.976-18.654C295.395,408.526,303.004,409.085,311.322,411.458z"/>
<path fill-rule="evenodd" clip-rule="evenodd" d="M329.613,444.242c0.129,4.506-3.574,8.349-8.077,8.379
	c-3.964,0.027-6.7-2.824-6.733-7.015c-0.037-4.683,3.539-8.489,7.941-8.452C326.51,437.186,329.499,440.271,329.613,444.242z"/>
</svg>
