<?xml version="1.0" encoding="utf-8"?>
<!-- Generator: Adobe Illustrator 16.0.0, SVG Export Plug-In . SVG Version: 6.00 Build 0)  -->
<!DOCTYPE svg PUBLIC "-//W3C//DTD SVG 1.1//EN" "http://www.w3.org/Graphics/SVG/1.1/DTD/svg11.dtd">
<svg version="1.1" id="Capa_1" xmlns="http://www.w3.org/2000/svg" xmlns:xlink="http://www.w3.org/1999/xlink" x="0px" y="0px"
	 width="595.28px" height="841.89px" viewBox="0 0 595.28 841.89" enable-background="new 0 0 595.28 841.89" xml:space="preserve">
<path fill-rule="evenodd" clip-rule="evenodd" d="M293.023,533.534c-7.303,0-13.746,0-21.088,0c0-8.763,0-17.345,0-25.927
	c0-8.5,0-16.998,0-25.497c0-8.665,0-17.331,0-25.996s0-17.331,0-25.997c0-8.498,0.023-16.997-0.009-25.496
	c-0.032-8.416-0.122-16.831-0.187-25.247c-0.891,0.018-1.783,0.036-2.674,0.053c-0.783,17.665,0.162,35.394-0.35,53.684
	c-3.989,0-7.628,0.236-11.202-0.145c-1.06-0.113-2.77-1.964-2.771-3.02c-0.028-18.657-0.271-37.333,0.48-55.965
	c0.405-10.042,5.187-13.477,15.414-13.49c16.998-0.021,33.995-0.013,50.992-0.003c12.361,0.007,16.994,4.402,17.223,17.198
	c0.265,14.827,0.086,29.661,0.1,44.493c0.002,3.32,0,6.642,0,10.888c-4.172,0-8.11,0.303-11.938-0.217
	c-0.935-0.127-2.131-2.944-2.143-4.532c-0.109-14.664,0.045-29.328,0.033-43.992c-0.002-1.679-0.547-3.356-0.84-5.035
	c-0.601,0.074-1.201,0.148-1.802,0.222c0,51.12,0,102.24,0,154.178c-7.021,0-13.288,0.179-19.522-0.209
	c-0.861-0.053-2.199-2.905-2.216-4.473c-0.165-16.33-0.103-32.662-0.105-48.992c-0.001-5.666-0.052-11.332,0.015-16.997
	c0.028-2.487-0.405-4.054-3.511-4.089c-3.173-0.037-3.948,1.253-3.938,4.162c0.078,21.496,0.039,42.993,0.038,64.49
	C293.023,529.389,293.023,531.193,293.023,533.534z"/>
<path fill-rule="evenodd" clip-rule="evenodd" d="M272.749,333.953c0.056-13.486,10.638-23.993,24.119-23.947
	c13.353,0.045,24.067,10.809,24.03,24.143c-0.037,13.273-10.854,23.983-24.223,23.98
	C283.352,358.127,272.694,347.358,272.749,333.953z"/>
</svg>
